<svg version="1.1" xmlns="http://www.w3.org/2000/svg" xmlns:xlink="http://www.w3.org/1999/xlink" width="1589" height="1510"><defs/><g><g/><g/><g/><g/><g/><g/><g/><g/><g/><g/><g/><g/><g/><g/><g/><g/><g/><g/><g/><g/><g/><g/><g/><g><rect fill="white" stroke="none" x="0" y="0" width="1589" height="1510"/></g><g><text fill="black" stroke="none" font-family="sans-serif" font-size="16.5pt" font-style="normal" font-weight="normal" text-decoration="normal" x="721.8167013802722" y="24.50280495" text-anchor="start" dominant-baseline="alphabetic" xml:space="preserve">Recovery Flow</text></g><g/><g><path fill="none" stroke="black" paint-order="fill stroke markers" d=" M 44.631447682160164 95.887643371 L 44.631447682160164 1510.5162491509996" stroke-miterlimit="10" stroke-width="1.3612669416666667" stroke-dasharray="12.565541,5.445067766666667"/><path fill="none" stroke="black" paint-order="fill stroke markers" d=" M 781.8087515511706 95.887643371 L 781.8087515511706 1510.5162491509996" stroke-miterlimit="10" stroke-width="1.3612669416666667" stroke-dasharray="12.565541,5.445067766666667"/><path fill="none" stroke="black" paint-order="fill stroke markers" d=" M 1526.9744587404937 95.887643371 L 1526.9744587404937 1510.5162491509996" stroke-miterlimit="10" stroke-width="1.3612669416666667" stroke-dasharray="12.565541,5.445067766666667"/></g><g><path fill="none" stroke="none"/><g><path fill="white" stroke="black" paint-order="fill stroke markers" d=" M 8.167601650000002 51.782594461 L 81.09529371432032 51.782594461 L 81.09529371432032 95.887643371 L 8.167601650000002 95.887643371 L 8.167601650000002 51.782594461 Z" stroke-miterlimit="10" stroke-width="2.613632528" stroke-dasharray=""/></g><g><g/><text fill="black" stroke="none" font-family="sans-serif" font-size="11pt" font-style="normal" font-weight="normal" text-decoration="normal" x="25.891297230500008" y="79.55244007099999" text-anchor="start" dominant-baseline="alphabetic" xml:space="preserve">Client</text></g><path fill="none" stroke="none"/><g><path fill="white" stroke="black" paint-order="fill stroke markers" d=" M 742.4959522719402 51.782594461 L 821.1215508304011 51.782594461 L 821.1215508304011 95.887643371 L 742.4959522719402 95.887643371 L 742.4959522719402 51.782594461 Z" stroke-miterlimit="10" stroke-width="2.613632528" stroke-dasharray=""/></g><g><g/><text fill="black" stroke="none" font-family="sans-serif" font-size="11pt" font-style="normal" font-weight="normal" text-decoration="normal" x="760.2196478524402" y="79.55244007099999" text-anchor="start" dominant-baseline="alphabetic" xml:space="preserve">Server</text></g><path fill="none" stroke="none"/><g><path fill="white" stroke="black" paint-order="fill stroke markers" d=" M 1473.001671057943 51.782594461 L 1580.9472464230446 51.782594461 L 1580.9472464230446 95.887643371 L 1473.001671057943 95.887643371 L 1473.001671057943 51.782594461 Z" stroke-miterlimit="10" stroke-width="2.613632528" stroke-dasharray=""/></g><g><g/><text fill="black" stroke="none" font-family="sans-serif" font-size="11pt" font-style="normal" font-weight="normal" text-decoration="normal" x="1490.725366638443" y="79.55244007099999" text-anchor="start" dominant-baseline="alphabetic" xml:space="preserve">Email/SMS</text></g></g><g><g><g><rect fill="white" stroke="none" x="205.43348489314982" y="128.558049971" width="415.5732294470312" height="21.23576429"/></g><text fill="black" stroke="none" font-family="sans-serif" font-size="11pt" font-style="normal" font-weight="normal" text-decoration="normal" x="207.8837653881498" y="143.259732941" text-anchor="start" dominant-baseline="alphabetic" xml:space="preserve">Initiate password recovery process with email or phone number</text></g><g><path fill="none" stroke="black" paint-order="fill stroke markers" d=" M 44.631447682160164 149.793814261 L 779.0862176678373 149.793814261" stroke-miterlimit="10" stroke-width="1.3612669416666667" stroke-dasharray=""/><g transform="translate(781.8087515511706,149.793814261) translate(-781.8087515511706,-149.793814261)"><path fill="black" stroke="none" paint-order="stroke fill markers" d=" M 768.196082134504 142.98747955266666 L 781.8087515511706 149.793814261 L 768.196082134504 156.60014896933333 Z"/></g></g><g><g><rect fill="white" stroke="none" x="1053.3407997484885" y="174.296619211" width="202.1016107946875" height="21.23576429"/></g><text fill="black" stroke="none" font-family="sans-serif" font-size="11pt" font-style="normal" font-weight="normal" text-decoration="normal" x="1055.7910802434885" y="188.99830218099999" text-anchor="start" dominant-baseline="alphabetic" xml:space="preserve">Send password recovery code</text></g><g><path fill="none" stroke="black" paint-order="fill stroke markers" d=" M 781.8087515511706 195.532383501 L 1524.2519248571602 195.532383501" stroke-miterlimit="10" stroke-width="1.3612669416666667" stroke-dasharray=""/><g transform="translate(1526.9744587404937,195.532383501) translate(-1526.9744587404937,-195.532383501)"><path fill="black" stroke="none" paint-order="stroke fill markers" d=" M 1513.361789323827 188.72604879266666 L 1526.9744587404937 195.532383501 L 1513.361789323827 202.33871820933334 Z"/></g></g><g><g><rect fill="white" stroke="none" x="311.76843820125526" y="220.035188451" width="202.90332283082031" height="21.23576429"/></g><text fill="black" stroke="none" font-family="sans-serif" font-size="11pt" font-style="normal" font-weight="normal" text-decoration="normal" x="314.2187186962553" y="234.736871421" text-anchor="start" dominant-baseline="alphabetic" xml:space="preserve">Enter password recovery code</text></g><g><path fill="none" stroke="black" paint-order="fill stroke markers" d=" M 44.631447682160164 241.270952741 L 779.0862176678373 241.270952741" stroke-miterlimit="10" stroke-width="1.3612669416666667" stroke-dasharray=""/><g transform="translate(781.8087515511706,241.270952741) translate(-781.8087515511706,-241.270952741)"><path fill="black" stroke="none" paint-order="stroke fill markers" d=" M 768.196082134504 234.46461803266666 L 781.8087515511706 241.270952741 L 768.196082134504 248.07728744933334 Z"/></g></g><g><g><rect fill="white" stroke="none" x="801.1387421228374" y="265.773757691" width="92.65283454957031" height="21.23576429"/></g><text fill="black" stroke="none" font-family="sans-serif" font-size="11pt" font-style="normal" font-weight="normal" text-decoration="normal" x="803.5890226178374" y="280.475440661" text-anchor="start" dominant-baseline="alphabetic" xml:space="preserve">Validate code</text></g><g><path fill="none" stroke="black" paint-order="fill stroke markers" d=" M 781.8087515511706 287.009521981 L 847.1495647511706 287.009521981 L 847.1495647511706 308.245286271 L 784.531285434504 308.245286271" stroke-miterlimit="10" stroke-width="1.3612669416666667" stroke-dasharray=""/><g transform="translate(781.8087515511706,308.245286271) translate(-781.8087515511706,-308.245286271)"><path fill="black" stroke="none" paint-order="stroke fill markers" d=" M 795.4214209678373 301.43895156266666 L 781.8087515511706 308.245286271 L 795.4214209678373 315.05162097933334 Z"/></g></g><g><g><rect fill="white" stroke="none" x="346.00964913875526" y="332.748091221" width="134.42090095582031" height="21.23576429"/></g><text fill="black" stroke="none" font-family="sans-serif" font-size="11pt" font-style="normal" font-weight="normal" text-decoration="normal" x="348.4599296337553" y="347.44977419099996" text-anchor="start" dominant-baseline="alphabetic" xml:space="preserve">Issue recovery JWT</text></g><g><path fill="none" stroke="black" paint-order="fill stroke markers" d=" M 781.8087515511706 353.983855511 L 47.3539815654935 353.983855511" stroke-miterlimit="10" stroke-width="1.3612669416666667" stroke-dasharray=""/><g transform="translate(44.631447682160164,353.983855511) translate(-44.631447682160164,-353.983855511)"><path fill="black" stroke="none" paint-order="stroke fill markers" d=" M 58.244117098826834 347.17752080266666 L 44.631447682160164 353.983855511 L 58.244117098826834 360.79019021933334 Z"/></g></g><g><g><rect fill="white" stroke="none" x="311.3604105523295" y="378.486660461" width="203.71937812867188" height="21.23576429"/></g><text fill="black" stroke="none" font-family="sans-serif" font-size="11pt" font-style="normal" font-weight="normal" text-decoration="normal" x="313.8106910473295" y="393.18834343099996" text-anchor="start" dominant-baseline="alphabetic" xml:space="preserve">Request encrypted master key</text></g><g><path fill="none" stroke="black" paint-order="fill stroke markers" d=" M 44.631447682160164 399.722424751 L 779.0862176678373 399.722424751" stroke-miterlimit="10" stroke-width="1.3612669416666667" stroke-dasharray=""/><g transform="translate(781.8087515511706,399.722424751) translate(-781.8087515511706,-399.722424751)"><path fill="black" stroke="none" paint-order="stroke fill markers" d=" M 768.196082134504 392.91609004266667 L 781.8087515511706 399.722424751 L 768.196082134504 406.52875945933334 Z"/></g></g><g><g><rect fill="white" stroke="none" x="63.96143825382683" y="424.22522970100005" width="424.4994684607031" height="21.23576429"/></g><text fill="black" stroke="none" font-family="sans-serif" font-size="11pt" font-style="normal" font-weight="normal" text-decoration="normal" x="66.41171874882683" y="438.926912671" text-anchor="start" dominant-baseline="alphabetic" xml:space="preserve">Decrypt master key using recovery key from device local storage</text></g><g><path fill="none" stroke="black" paint-order="fill stroke markers" d=" M 44.631447682160164 445.460993991 L 109.97226088216016 445.460993991 L 109.97226088216016 466.69675828100003 L 47.3539815654935 466.69675828100003" stroke-miterlimit="10" stroke-width="1.3612669416666667" stroke-dasharray=""/><g transform="translate(44.631447682160164,466.69675828100003) translate(-44.631447682160164,-466.69675828100003)"><path fill="black" stroke="none" paint-order="stroke fill markers" d=" M 58.244117098826834 459.8904235726667 L 44.631447682160164 466.69675828100003 L 58.244117098826834 473.50309298933337 Z"/></g></g><g><g><rect fill="white" stroke="none" x="63.96143825382683" y="491.199563231" width="319.4243952185156" height="21.23576429"/></g><text fill="black" stroke="none" font-family="sans-serif" font-size="11pt" font-style="normal" font-weight="normal" text-decoration="normal" x="66.41171874882683" y="505.901246201" text-anchor="start" dominant-baseline="alphabetic" xml:space="preserve">Generate authentication key keccak(master key)</text></g><g><path fill="none" stroke="black" paint-order="fill stroke markers" d=" M 44.631447682160164 512.435327521 L 109.97226088216016 512.435327521 L 109.97226088216016 533.671091811 L 47.3539815654935 533.671091811" stroke-miterlimit="10" stroke-width="1.3612669416666667" stroke-dasharray=""/><g transform="translate(44.631447682160164,533.671091811) translate(-44.631447682160164,-533.671091811)"><path fill="black" stroke="none" paint-order="stroke fill markers" d=" M 58.244117098826834 526.8647571026667 L 44.631447682160164 533.671091811 L 58.244117098826834 540.4774265193333 Z"/></g></g><g><g><rect fill="white" stroke="none" x="233.52937112361857" y="558.1738967609999" width="359.3814569860937" height="21.23576429"/></g><text fill="black" stroke="none" font-family="sans-serif" font-size="11pt" font-style="normal" font-weight="normal" text-decoration="normal" x="235.97965161861856" y="572.8755797309999" text-anchor="start" dominant-baseline="alphabetic" xml:space="preserve">Request encrypted private  key with authentication key</text></g><g><path fill="none" stroke="black" paint-order="fill stroke markers" d=" M 44.631447682160164 579.409661051 L 779.0862176678373 579.409661051" stroke-miterlimit="10" stroke-width="1.3612669416666667" stroke-dasharray=""/><g transform="translate(781.8087515511706,579.409661051) translate(-781.8087515511706,-579.409661051)"><path fill="black" stroke="none" paint-order="stroke fill markers" d=" M 768.196082134504 572.6033263426666 L 781.8087515511706 579.409661051 L 768.196082134504 586.2159957593333 Z"/></g></g><g><g><rect fill="white" stroke="none" x="801.1387421228374" y="603.9124660009999" width="317.8353144079687" height="21.23576429"/></g><text fill="black" stroke="none" font-family="sans-serif" font-size="11pt" font-style="normal" font-weight="normal" text-decoration="normal" x="803.5890226178374" y="618.6141489709998" text-anchor="start" dominant-baseline="alphabetic" xml:space="preserve">Retrieve salt and stored authentication key hash</text></g><g><path fill="none" stroke="black" paint-order="fill stroke markers" d=" M 781.8087515511706 625.1482302909999 L 847.1495647511706 625.1482302909999 L 847.1495647511706 646.3839945809999 L 784.531285434504 646.3839945809999" stroke-miterlimit="10" stroke-width="1.3612669416666667" stroke-dasharray=""/><g transform="translate(781.8087515511706,646.3839945809999) translate(-781.8087515511706,-646.3839945809999)"><path fill="black" stroke="none" paint-order="stroke fill markers" d=" M 795.4214209678373 639.5776598726666 L 781.8087515511706 646.3839945809999 L 795.4214209678373 653.1903292893332 Z"/></g></g><g><g><rect fill="white" stroke="none" x="801.1387421228374" y="670.8867995309998" width="720.1183954626563" height="21.23576429"/></g><text fill="black" stroke="none" font-family="sans-serif" font-size="11pt" font-style="normal" font-weight="normal" text-decoration="normal" x="803.5890226178374" y="685.5884825009998" text-anchor="start" dominant-baseline="alphabetic" xml:space="preserve">generate authentication key hash PBKDF2(salt: random salt, password: authentication key, iterations: 100000)</text></g><g><path fill="none" stroke="black" paint-order="fill stroke markers" d=" M 781.8087515511706 692.1225638209999 L 847.1495647511706 692.1225638209999 L 847.1495647511706 713.3583281109999 L 784.531285434504 713.3583281109999" stroke-miterlimit="10" stroke-width="1.3612669416666667" stroke-dasharray=""/><g transform="translate(781.8087515511706,713.3583281109999) translate(-781.8087515511706,-713.3583281109999)"><path fill="black" stroke="none" paint-order="stroke fill markers" d=" M 795.4214209678373 706.5519934026665 L 781.8087515511706 713.3583281109999 L 795.4214209678373 720.1646628193332 Z"/></g></g><g><g><rect fill="white" stroke="none" x="801.1387421228374" y="737.8611330609998" width="404.2275263220312" height="21.23576429"/></g><text fill="black" stroke="none" font-family="sans-serif" font-size="11pt" font-style="normal" font-weight="normal" text-decoration="normal" x="803.5890226178374" y="752.5628160309998" text-anchor="start" dominant-baseline="alphabetic" xml:space="preserve">Compare generated authentication key hash with stored hash</text></g><g><path fill="none" stroke="black" paint-order="fill stroke markers" d=" M 781.8087515511706 759.0968973509998 L 847.1495647511706 759.0968973509998 L 847.1495647511706 780.3326616409998 L 784.531285434504 780.3326616409998" stroke-miterlimit="10" stroke-width="1.3612669416666667" stroke-dasharray=""/><g transform="translate(781.8087515511706,780.3326616409998) translate(-781.8087515511706,-780.3326616409998)"><path fill="black" stroke="none" paint-order="stroke fill markers" d=" M 795.4214209678373 773.5263269326665 L 781.8087515511706 780.3326616409998 L 795.4214209678373 787.1389963493332 Z"/></g></g><g><g><rect fill="white" stroke="none" x="341.0991343072123" y="804.8354665909998" width="144.24193061890625" height="21.23576429"/></g><text fill="black" stroke="none" font-family="sans-serif" font-size="11pt" font-style="normal" font-weight="normal" text-decoration="normal" x="343.5494148022123" y="819.5371495609998" text-anchor="start" dominant-baseline="alphabetic" xml:space="preserve">encrypted private key</text></g><g><path fill="none" stroke="black" paint-order="fill stroke markers" d=" M 781.8087515511706 826.0712308809998 L 47.3539815654935 826.0712308809998" stroke-miterlimit="10" stroke-width="1.3612669416666667" stroke-dasharray=""/><g transform="translate(44.631447682160164,826.0712308809998) translate(-44.631447682160164,-826.0712308809998)"><path fill="black" stroke="none" paint-order="stroke fill markers" d=" M 58.244117098826834 819.2648961726665 L 44.631447682160164 826.0712308809998 L 58.244117098826834 832.8775655893331 Z"/></g></g><g><g><rect fill="white" stroke="none" x="63.96143825382683" y="850.5740358309997" width="493.7836786657812" height="21.23576429"/></g><text fill="black" stroke="none" font-family="sans-serif" font-size="11pt" font-style="normal" font-weight="normal" text-decoration="normal" x="66.41171874882683" y="865.2757188009997" text-anchor="start" dominant-baseline="alphabetic" xml:space="preserve">prompt for new password (do strength and compromised password checks)</text></g><g><path fill="none" stroke="black" paint-order="fill stroke markers" d=" M 44.631447682160164 871.8098001209997 L 109.97226088216016 871.8098001209997 L 109.97226088216016 893.0455644109998 L 47.3539815654935 893.0455644109998" stroke-miterlimit="10" stroke-width="1.3612669416666667" stroke-dasharray=""/><g transform="translate(44.631447682160164,893.0455644109998) translate(-44.631447682160164,-893.0455644109998)"><path fill="black" stroke="none" paint-order="stroke fill markers" d=" M 58.244117098826834 886.2392297026664 L 44.631447682160164 893.0455644109998 L 58.244117098826834 899.8518991193331 Z"/></g></g><g><g><rect fill="white" stroke="none" x="63.96143825382683" y="917.5483693609997" width="236.274828568125" height="21.23576429"/></g><text fill="black" stroke="none" font-family="sans-serif" font-size="11pt" font-style="normal" font-weight="normal" text-decoration="normal" x="66.41171874882683" y="932.2500523309997" text-anchor="start" dominant-baseline="alphabetic" xml:space="preserve">Decrypt private key with master key</text></g><g><path fill="none" stroke="black" paint-order="fill stroke markers" d=" M 44.631447682160164 938.7841336509997 L 109.97226088216016 938.7841336509997 L 109.97226088216016 960.0198979409997 L 47.3539815654935 960.0198979409997" stroke-miterlimit="10" stroke-width="1.3612669416666667" stroke-dasharray=""/><g transform="translate(44.631447682160164,960.0198979409997) translate(-44.631447682160164,-960.0198979409997)"><path fill="black" stroke="none" paint-order="stroke fill markers" d=" M 58.244117098826834 953.2135632326664 L 44.631447682160164 960.0198979409997 L 58.244117098826834 966.8262326493331 Z"/></g></g><g><g><rect fill="white" stroke="none" x="63.96143825382683" y="984.5227028909997" width="712.1299921423438" height="21.23576429"/></g><text fill="black" stroke="none" font-family="sans-serif" font-size="11pt" font-style="normal" font-weight="normal" text-decoration="normal" x="66.41171874882683" y="999.2243858609996" text-anchor="start" dominant-baseline="alphabetic" xml:space="preserve">Generate 32 byte master key PBKDF2 (salt: keccak(email), password: keccak(password), iterations: 100000)</text></g><g><path fill="none" stroke="black" paint-order="fill stroke markers" d=" M 44.631447682160164 1005.7584671809997 L 109.97226088216016 1005.7584671809997 L 109.97226088216016 1026.9942314709997 L 47.3539815654935 1026.9942314709997" stroke-miterlimit="10" stroke-width="1.3612669416666667" stroke-dasharray=""/><g transform="translate(44.631447682160164,1026.9942314709997) translate(-44.631447682160164,-1026.9942314709997)"><path fill="black" stroke="none" paint-order="stroke fill markers" d=" M 58.244117098826834 1020.1878967626664 L 44.631447682160164 1026.9942314709997 L 58.244117098826834 1033.800566179333 Z"/></g></g><g><g><rect fill="white" stroke="none" x="63.96143825382683" y="1051.4970364209996" width="371.5861383825781" height="21.23576429"/></g><text fill="black" stroke="none" font-family="sans-serif" font-size="11pt" font-style="normal" font-weight="normal" text-decoration="normal" x="66.41171874882683" y="1066.1987193909997" text-anchor="start" dominant-baseline="alphabetic" xml:space="preserve">Generate 32 byte authentication key keccak(master key)</text></g><g><path fill="none" stroke="black" paint-order="fill stroke markers" d=" M 44.631447682160164 1072.7328007109998 L 109.97226088216016 1072.7328007109998 L 109.97226088216016 1093.9685650009997 L 47.3539815654935 1093.9685650009997" stroke-miterlimit="10" stroke-width="1.3612669416666667" stroke-dasharray=""/><g transform="translate(44.631447682160164,1093.9685650009997) translate(-44.631447682160164,-1093.9685650009997)"><path fill="black" stroke="none" paint-order="stroke fill markers" d=" M 58.244117098826834 1087.1622302926664 L 44.631447682160164 1093.9685650009997 L 58.244117098826834 1100.7748997093329 Z"/></g></g><g><g><rect fill="white" stroke="none" x="63.96143825382683" y="1118.4713699509996" width="356.8331171423437" height="21.23576429"/></g><text fill="black" stroke="none" font-family="sans-serif" font-size="11pt" font-style="normal" font-weight="normal" text-decoration="normal" x="66.41171874882683" y="1133.1730529209997" text-anchor="start" dominant-baseline="alphabetic" xml:space="preserve">Encrypt private key JSON with master key (AES CBC)</text></g><g><path fill="none" stroke="black" paint-order="fill stroke markers" d=" M 44.631447682160164 1139.7071342409997 L 109.97226088216016 1139.7071342409997 L 109.97226088216016 1160.9428985309996 L 47.3539815654935 1160.9428985309996" stroke-miterlimit="10" stroke-width="1.3612669416666667" stroke-dasharray=""/><g transform="translate(44.631447682160164,1160.9428985309996) translate(-44.631447682160164,-1160.9428985309996)"><path fill="black" stroke="none" paint-order="stroke fill markers" d=" M 58.244117098826834 1154.1365638226664 L 44.631447682160164 1160.9428985309996 L 58.244117098826834 1167.7492332393329 Z"/></g></g><g><g><rect fill="white" stroke="none" x="240.03617654354045" y="1185.4457034809998" width="346.36784614625" height="21.23576429"/></g><text fill="black" stroke="none" font-family="sans-serif" font-size="11pt" font-style="normal" font-weight="normal" text-decoration="normal" x="242.48645703854044" y="1200.1473864509999" text-anchor="start" dominant-baseline="alphabetic" xml:space="preserve">Update authentication key and encrypted private key</text></g><g><path fill="none" stroke="black" paint-order="fill stroke markers" d=" M 44.631447682160164 1206.6814677709997 L 779.0862176678373 1206.6814677709997" stroke-miterlimit="10" stroke-width="1.3612669416666667" stroke-dasharray=""/><g transform="translate(781.8087515511706,1206.6814677709997) translate(-781.8087515511706,-1206.6814677709997)"><path fill="black" stroke="none" paint-order="stroke fill markers" d=" M 768.196082134504 1199.8751330626665 L 781.8087515511706 1206.6814677709997 L 768.196082134504 1213.487802479333 Z"/></g></g><g><g><rect fill="white" stroke="none" x="801.1387421228374" y="1231.1842727209996" width="143.4402338415625" height="21.23576429"/></g><text fill="black" stroke="none" font-family="sans-serif" font-size="11pt" font-style="normal" font-weight="normal" text-decoration="normal" x="803.5890226178374" y="1245.8859556909997" text-anchor="start" dominant-baseline="alphabetic" xml:space="preserve">generate random salt</text></g><g><path fill="none" stroke="black" paint-order="fill stroke markers" d=" M 781.8087515511706 1252.4200370109997 L 847.1495647511706 1252.4200370109997 L 847.1495647511706 1273.6558013009997 L 784.531285434504 1273.6558013009997" stroke-miterlimit="10" stroke-width="1.3612669416666667" stroke-dasharray=""/><g transform="translate(781.8087515511706,1273.6558013009997) translate(-781.8087515511706,-1273.6558013009997)"><path fill="black" stroke="none" paint-order="stroke fill markers" d=" M 795.4214209678373 1266.8494665926664 L 781.8087515511706 1273.6558013009997 L 795.4214209678373 1280.4621360093329 Z"/></g></g><g><g><rect fill="white" stroke="none" x="801.1387421228374" y="1298.1586062509996" width="720.1183954626563" height="21.23576429"/></g><text fill="black" stroke="none" font-family="sans-serif" font-size="11pt" font-style="normal" font-weight="normal" text-decoration="normal" x="803.5890226178374" y="1312.8602892209997" text-anchor="start" dominant-baseline="alphabetic" xml:space="preserve">generate authentication key hash PBKDF2(salt: random salt, password: authentication key, iterations: 100000)</text></g><g><path fill="none" stroke="black" paint-order="fill stroke markers" d=" M 781.8087515511706 1319.3943705409997 L 847.1495647511706 1319.3943705409997 L 847.1495647511706 1340.6301348309996 L 784.531285434504 1340.6301348309996" stroke-miterlimit="10" stroke-width="1.3612669416666667" stroke-dasharray=""/><g transform="translate(781.8087515511706,1340.6301348309996) translate(-781.8087515511706,-1340.6301348309996)"><path fill="black" stroke="none" paint-order="stroke fill markers" d=" M 795.4214209678373 1333.8238001226664 L 781.8087515511706 1340.6301348309996 L 795.4214209678373 1347.4364695393328 Z"/></g></g><g><g><rect fill="white" stroke="none" x="801.1387421228374" y="1365.1329397809995" width="441.6791864782812" height="21.23576429"/></g><text fill="black" stroke="none" font-family="sans-serif" font-size="11pt" font-style="normal" font-weight="normal" text-decoration="normal" x="803.5890226178374" y="1379.8346227509996" text-anchor="start" dominant-baseline="alphabetic" xml:space="preserve">store encrypted private key JSON, salt and authentication key hash</text></g><g><path fill="none" stroke="black" paint-order="fill stroke markers" d=" M 781.8087515511706 1386.3687040709997 L 847.1495647511706 1386.3687040709997 L 847.1495647511706 1407.6044683609996 L 784.531285434504 1407.6044683609996" stroke-miterlimit="10" stroke-width="1.3612669416666667" stroke-dasharray=""/><g transform="translate(781.8087515511706,1407.6044683609996) translate(-781.8087515511706,-1407.6044683609996)"><path fill="black" stroke="none" paint-order="stroke fill markers" d=" M 795.4214209678373 1400.7981336526664 L 781.8087515511706 1407.6044683609996 L 795.4214209678373 1414.4108030693328 Z"/></g></g><g><g><rect fill="white" stroke="none" x="391.2100504449076" y="1432.1072733109997" width="44.02009834351563" height="21.23576429"/></g><text fill="black" stroke="none" font-family="sans-serif" font-size="11pt" font-style="normal" font-weight="normal" text-decoration="normal" x="393.6603309399076" y="1446.8089562809998" text-anchor="start" dominant-baseline="alphabetic" xml:space="preserve">Done!</text></g><g><path fill="none" stroke="black" paint-order="fill stroke markers" d=" M 781.8087515511706 1453.3430376009997 L 47.3539815654935 1453.3430376009997" stroke-miterlimit="10" stroke-width="1.3612669416666667" stroke-dasharray=""/><g transform="translate(44.631447682160164,1453.3430376009997) translate(-44.631447682160164,-1453.3430376009997)"><path fill="black" stroke="none" paint-order="stroke fill markers" d=" M 58.244117098826834 1446.5367028926664 L 44.631447682160164 1453.3430376009997 L 58.244117098826834 1460.1493723093329 Z"/></g></g></g><g/><g/><g/></g></svg>