<?xml version="1.0" encoding="utf-8"?>
<!-- Generator: Adobe Illustrator 24.0.2, SVG Export Plug-In . SVG Version: 6.00 Build 0)  -->
<svg version="1.1" id="Layer_1" xmlns="http://www.w3.org/2000/svg" xmlns:xlink="http://www.w3.org/1999/xlink" x="0px" y="0px"
	 viewBox="0 0 46.6 45" style="enable-background:new 0 0 46.6 45;" xml:space="preserve">
<style type="text/css">
	.st0{fill:#FF0066;}
</style>
<g>
	<path id="Path_1_" class="st0" d="M13.5,15.2c0.2-0.9,1-1.5,2-1.6h28.2c0.7,0,1.2-0.5,1.3-1.1l1.1-5.2c0.1-0.5-0.1-0.9-0.6-1
		c-0.1,0-0.2,0-0.3,0H15.3c-4.3,0-8.4,3.3-9.3,7.3L0.8,38.7c-0.1,0.5,0.1,0.9,0.6,1c0.1,0,0.2,0,0.3,0h5.5c0.7,0,1.2-0.5,1.3-1
		l2.2-10.5h29.9c0.7,0,1.2-0.5,1.3-1L43,22c0.1-0.5-0.1-0.9-0.6-1c-0.1,0-0.2,0-0.3,0H12.3L13.5,15.2z"/>
</g>
</svg>
