<?xml version="1.0" encoding="UTF-8"?>
<svg width="241px" height="45px" viewBox="0 0 241 45" version="1.1" xmlns="http://www.w3.org/2000/svg" xmlns:xlink="http://www.w3.org/1999/xlink">
    <title>FFwallet_logo</title>
    <defs>
        <filter id="filter-1">
            <feColorMatrix in="SourceGraphic" type="matrix" values="0 0 0 0 1.000000 0 0 0 0 0.000000 0 0 0 0 0.400000 0 0 0 1.000000 0"></feColorMatrix>
        </filter>
    </defs>
    <g id="wallet-mobile" stroke="none" stroke-width="1" fill="none" fill-rule="evenodd">
        <g id="Mobile-wallet-settings-account" transform="translate(-388.000000, -802.000000)">
            <g id="page">
                <g id="legalogoversions" transform="translate(12.000000, 798.000000)">
                    <g id="FFwallet_logo" transform="translate(376.000000, 4.000000)">
                        <g id="FUN" fill="#FF0066" fill-rule="nonzero">
                            <path d="M109.548822,-1.49213975e-13 L90.325535,-1.49213975e-13 C86.7683286,-1.49213975e-13 83.3548477,2.89855072 82.6362202,6.44927536 L78.2885235,28.6231884 C78.1807293,29.0217391 78.3963176,29.4202899 78.7915627,29.5289855 C78.8634255,29.5652174 78.9352883,29.5652174 79.007151,29.5652174 L83.6063674,29.5652174 C84.145338,29.5289855 84.5765146,29.1666667 84.6843087,28.6231884 L88.7445544,7.82608696 C88.9242112,7.02898551 89.6069074,6.48550725 90.3973977,6.44927536 L106.8899,6.44927536 C107.500734,6.41304348 108.003773,6.88405797 108.039704,7.5 C108.039704,7.60869565 108.039704,7.7173913 108.003773,7.82608696 L103.907596,28.6231884 C103.799802,29.0217391 104.01539,29.4202899 104.410635,29.5289855 C104.482498,29.5652174 104.590292,29.5652174 104.662155,29.5652174 L109.22544,29.5652174 C109.76441,29.5289855 110.195587,29.1666667 110.303381,28.6231884 L114.651078,6.44927536 C115.369705,2.86231884 113.070097,-1.49213975e-13 109.548822,-1.49213975e-13" id="Path"></path>
                            <path d="M11.200713,7.82608696 C11.3920019,7.02898551 12.1188995,6.48550725 12.9605704,6.44927536 L37.8281206,6.44927536 C38.4019871,6.41304348 38.8610803,6.05072464 39.0141114,5.50724638 L39.9705556,0.905797101 C40.0853289,0.507246377 39.8557823,0.108695652 39.4349469,-1.49213975e-13 C39.3584313,-1.49213975e-13 39.2819158,-1.49213975e-13 39.2054003,-1.49213975e-13 L12.8457971,-1.49213975e-13 C9.09653571,-1.49213975e-13 5.42378985,2.89855072 4.65863446,6.44927536 L0.0294443584,28.6231884 C-0.0853289499,29.0217391 0.144217667,29.4202899 0.56505313,29.5289855 C0.641568669,29.5652174 0.718084208,29.5652174 0.832857516,29.5652174 L5.69159423,29.5652174 C6.26546078,29.5289855 6.72455401,29.1666667 6.83932732,28.6594203 L8.75221579,19.4202899 L35.1500767,19.4202899 C35.7239432,19.384058 36.1830365,19.0217391 36.3360675,18.5144928 L37.2925118,13.8768116 C37.4072851,13.4782609 37.1777385,13.0797101 36.756903,12.9710145 C36.6803875,12.9347826 36.5656142,12.9347826 36.4890986,12.9347826 L10.1677533,12.9347826 L11.200713,7.82608696 Z" id="Path"></path>
                            <path d="M45.2337867,29.5652174 L64.4570737,29.5652174 C68.0142801,29.5652174 71.427761,26.6666667 72.1463885,23.0797101 L76.4940852,0.905797101 C76.6018794,0.507246377 76.3862911,0.108695652 75.9910459,-1.49213975e-13 C75.9551146,-1.49213975e-13 75.8832518,-1.49213975e-13 75.8113891,-1.49213975e-13 L71.2121727,-1.49213975e-13 C70.6732021,0.0362318841 70.2420255,0.398550725 70.0983,0.905797101 L66.002123,21.6666667 C65.8224661,22.4637681 65.1397699,23.0072464 64.3492796,23.0434783 L47.8567772,23.0434783 C47.2459438,23.0797101 46.7429045,22.6086957 46.7069731,22.0289855 C46.7069731,21.9202899 46.7069731,21.7753623 46.7429045,21.6666667 L50.875013,0.942028986 C50.9828071,0.543478261 50.7672188,0.144927536 50.3719737,0.0362318841 C50.3001109,-1.49213975e-13 50.2282482,-1.49213975e-13 50.1563854,-1.49213975e-13 L45.5571691,-1.49213975e-13 C45.0181984,0.0362318841 44.5870219,0.398550725 44.4792277,0.905797101 L40.131531,23.0797101 C39.4129035,26.6666667 41.7125117,29.5652174 45.2337867,29.5652174" id="Path"></path>
                        </g>
                        <g id="FAIR" transform="translate(114.782609, 0.000000)" fill="#003366" fill-rule="nonzero">
                            <path d="M11.2114361,7.82608696 C11.4029081,7.02898551 12.1305016,6.48550725 12.9729784,6.44927536 L37.8643357,6.44927536 C38.4387516,6.41304348 38.8982844,6.05072464 39.0131676,5.50724638 L39.9705275,0.905797101 C40.0854106,0.507246377 39.8556443,0.108695652 39.4344059,-1.49213975e-13 C39.3961115,-1.49213975e-13 39.3195227,-1.49213975e-13 39.2429339,-1.49213975e-13 L12.8580952,-1.49213975e-13 C9.06694998,-1.49213975e-13 5.42898237,2.89855072 4.66309445,6.44927536 L0.0294725472,28.6231884 C-0.0854106404,29.0217391 0.144355735,29.4202899 0.56559409,29.5289855 C0.642182881,29.5652174 0.718771673,29.5652174 0.833654861,29.5652174 L5.69704314,29.5652174 C6.27145908,29.5289855 6.73099183,29.1666667 6.84587501,28.6594203 L8.76059481,19.4202899 L35.1071392,19.4202899 C35.6815551,19.384058 36.1410879,19.0217391 36.2942654,18.5144928 L37.2899197,13.9130435 C37.4048029,13.5144928 37.1750366,13.115942 36.7537982,13.0072464 C36.6772094,12.9710145 36.6006206,12.9710145 36.5240318,12.9710145 L10.1391931,12.9710145 L11.2114361,7.82608696 Z" id="Path"></path>
                            <path d="M47.8404755,12.9506535 L48.8427621,7.87196586 C49.0217418,7.07388637 49.7018648,6.52974126 50.4893757,6.49346492 L66.919716,6.49346492 C67.5282472,6.45718858 68.0293904,6.96505735 68.0651864,7.58175513 C68.0651864,7.69058416 68.0651864,7.79941318 68.0293904,7.87196586 L67.0271039,12.9506535 L47.8404755,12.9506535 Z M69.5328203,-1.49213975e-13 L50.3819879,-1.49213975e-13 C46.838189,-1.49213975e-13 43.4375738,2.90210723 42.7216549,6.45718858 L38.2829573,29.1299013 C38.2113654,29.311283 38.3187532,29.5289411 38.5335289,29.5652174 C38.5693249,29.5652174 38.6051208,29.5652174 38.6409168,29.5652174 L44.1176969,29.5652174 C44.3682685,29.5652174 44.6188401,29.3475593 44.6546361,29.093625 L46.5876173,19.3715658 L65.7384497,19.3715658 L63.8412645,29.1299013 C63.7696726,29.311283 63.8770604,29.5289411 64.0918361,29.5652174 C64.1276321,29.5652174 64.163428,29.5652174 64.199224,29.5652174 L69.6760041,29.5652174 C69.9265757,29.5652174 70.1771474,29.3475593 70.2129433,29.093625 L74.6516409,6.42091224 C75.3675599,2.90210723 73.0766192,-1.49213975e-13 69.5328203,-1.49213975e-13 L69.5328203,-1.49213975e-13 Z" id="Shape"></path>
                            <path d="M75.6934239,29.5652174 L81.0487902,29.5652174 C81.6763722,29.5289855 82.1784378,29.1666667 82.3039542,28.6231884 L88.6634517,0.905797101 C88.7889681,0.507246377 88.5379353,0.108695652 88.0777086,-1.49213975e-13 C87.9521922,-1.49213975e-13 87.8685146,-1.49213975e-13 87.784837,-1.49213975e-13 L82.4294706,-1.49213975e-13 C81.8018886,0.0362318841 81.299823,0.398550725 81.1743066,0.905797101 L74.8148091,28.6231884 C74.6892927,29.0217391 74.9403255,29.4202899 75.4005523,29.5289855 C75.4842299,29.5652174 75.5679075,29.5652174 75.6934239,29.5652174" id="Path"></path>
                            <path d="M117.617579,11.557971 C117.438333,12.3550725 116.757201,12.8985507 115.968522,12.9347826 L98.1515434,12.9347826 L99.4062602,6.48550725 L117.223239,6.48550725 C117.832673,6.44927536 118.33456,6.92028986 118.33456,7.53623188 C118.33456,7.57246377 118.33456,7.57246377 118.33456,7.60869565 C118.370409,7.64492754 117.617579,11.557971 117.617579,11.557971 M119.911918,-1.49213975e-13 L95.2477702,-1.49213975e-13 C94.7100344,0.0362318841 94.2798458,0.398550725 94.1364496,0.905797101 L88.7232427,28.6231884 C88.6156956,29.0217391 88.8307899,29.4202899 89.2251294,29.5289855 C89.2968275,29.5652174 89.3685256,29.5652174 89.4402237,29.5652174 L94.0289024,29.5652174 C94.5666382,29.5289855 94.9968268,29.1666667 95.140223,28.6231884 L96.9326756,19.384058 L107.687391,19.384058 L112.562862,29.1304348 C112.706258,29.384058 112.957202,29.5289855 113.243994,29.5289855 L119.696824,29.5289855 C119.983616,29.5289855 120.234559,29.2753623 120.234559,28.9855072 C120.234559,28.9130435 120.234559,28.8768116 120.19871,28.8043478 L115.502485,19.384058 L116.147767,19.384058 C119.660975,19.384058 123.102484,16.4855072 123.819465,12.9347826 L125.11003,6.44927536 C125.755313,2.89855072 123.425125,-1.49213975e-13 119.911918,-1.49213975e-13" id="Shape"></path>
                        </g>
                        <g filter="url(#filter-1)" id="WALLET">
                            <g transform="translate(113.437500, 33.750000)">
                                <polygon id="Path" fill="#FFFFFF" fill-rule="nonzero" points="2.95327103 0.200668896 3.6635514 7.5451505 4.14953271 7.5451505 7.70093458 0.200668896 10.8411215 0.200668896 11.1775701 7.5451505 11.6635514 7.5451505 15.588785 0.200668896 18.3551402 0.200668896 12.8598131 10.0334448 8.82242991 10.0334448 8.6728972 2.84949833 5.38317757 10.0334448 1.30841121 10.0334448 0.224299065 0.200668896"></polygon>
                                <path d="M35.6635514,0.160535117 L38.0186916,9.99331104 L35.0280374,9.99331104 L34.6542056,8.34782609 L28.9719626,8.34782609 L27.8878505,9.99331104 L24.8971963,9.99331104 L31.588785,0.160535117 L35.6635514,0.160535117 Z M33.3457944,2.48829431 L32.8224299,2.48829431 L30.3551402,6.22073579 L34.2056075,6.22073579 L33.3457944,2.48829431 Z" id="Shape" fill="#FFFFFF" fill-rule="nonzero"></path>
                                <polygon id="Path" fill="#FFFFFF" fill-rule="nonzero" points="53.3457944 0.200668896 51.7383178 7.50501672 57.8317757 7.50501672 57.271028 9.99331104 48.411215 9.99331104 50.5794393 0.160535117 53.3457944 0.160535117"></polygon>
                                <polygon id="Path" fill="#FFFFFF" fill-rule="nonzero" points="72.8971963 0.200668896 71.2897196 7.50501672 77.3831776 7.50501672 76.8224299 9.99331104 67.9626168 9.99331104 70.1308411 0.160535117 72.8971963 0.160535117"></polygon>
                                <polygon id="Path" fill="#FFFFFF" fill-rule="nonzero" points="99.1775701 0.200668896 98.6542056 2.52842809 91.7383178 2.52842809 91.4392523 3.97324415 98.0186916 3.97324415 97.5327103 6.14046823 90.953271 6.14046823 90.6168224 7.70568562 97.6074766 7.70568562 97.0841121 10.0735786 87.5140187 10.0735786 89.682243 0.240802676 99.1775701 0.240802676"></polygon>
                                <polygon id="Path" fill="#FFFFFF" fill-rule="nonzero" points="119.962617 0.200668896 119.401869 2.68896321 115.588785 2.68896321 113.981308 9.99331104 111.252336 9.99331104 112.859813 2.68896321 109.046729 2.68896321 109.607477 0.200668896"></polygon>
                            </g>
                        </g>
                    </g>
                </g>
            </g>
        </g>
    </g>
</svg>